<svg xmlns="http://www.w3.org/2000/svg" viewBox="0 0 612 792" enable-background="new 0 0 612 792"><path opacity=".3" fill="#2A2929" d="M592.1 790.7h-571.1v-594h571v594zm-567.4-3.6h563.8v-586.7h-563.8v586.7zm0 3.6h-3.7v-128.8h571v3.6h-567.3v125.2zm567.4-125.2h-571.1v-19.8h571v19.8zm-567.4-3.6h563.8v-12.5h-563.8v12.5zm29 0h3.6v128.8h-3.6v-128.8zm500.4 0h3.6v128.8h-3.6v-128.8zm0 92.9h37.8v3.6h-37.8v-3.6zm-533.1 0h36.3v3.6h-36.3v-3.6zm533.1-490h3.6v348.8h-3.6v-348.8zm-100.2 0h103.8v3.6h-103.8v-3.6zm0 345.2h103.8v3.6h-103.8v-3.6zm0-345.2h3.6v348.8h-3.6v-348.8zm103.8 348.8h-103.8v-348.8h103.8v348.8zm-100.2-3.6h96.6v-341.6h-96.6v341.6zm89.5-10.7h-82.4v-320.2h82.4v320.2zm-78.6-3.6h75.1v-313h-75.1v313zm71.5-4.2h-68v-312.4h68v312.4zm-64.4-3.6h60.8v-305.2h-60.8v305.2zm5.3-82.7h3.6v78.8h-3.6v-78.8zm0 75.2h50.1v3.6h-50.1v-3.6zm50.2 3.6h-3.8v-75h-46.5v-3.8h50.3v78.8zm-50.2-41.2h50.1v3.6h-50.1v-3.6zm0-18.8h50.1v3.6h-50.1v-3.6zm0 37.6h50.1v3.6h-50.1v-3.6zm-8.9-91.2h68v3.6h-68v-3.6zm8.9-83.2h3.6v78.8h-3.6v-78.8zm0 75.2h50.1v3.6h-50.1v-3.6zm50.2 3.6h-3.8v-75.1h-46.5v-3.6h50.3v78.7zm-50.2-41.2h50.1v3.6h-50.1v-3.6zm0-18.8h50.1v3.6h-50.1v-3.6zm0 37.6h50.1v3.6h-50.1v-3.6zm-8.9-98.8h68v3.6h-68v-3.6zm8.9-65.8h3.6v61.4h-3.6v-61.4zm0 57.7h50.1v3.6h-50.1v-3.6zm0-37.5h50.1v3.6h-50.1v-3.6zm0 18.7h50.1v3.6h-50.1v-3.6zm46.4-38.9h3.6v61.4h-3.6v-61.4zm-373.3-14.2h3.6v348.8h-3.6v-348.8zm-100.2 0h103.8v3.6h-103.8v-3.6zm0 345.2h103.8v3.6h-103.8v-3.6zm0-345.2h3.6v348.8h-3.6v-348.8zm103.8 348.8h-103.8v-348.8h103.8v348.8zm-100.1-3.6h96.6v-341.6h-96.6v341.6zm89.4-10.7h-82.4v-320.2h82.4v320.2zm-78.7-3.6h75.1v-313h-75.1v313zm71.5-4.2h-68v-312.4h68v312.4zm-64.4-3.6h60.8v-305.2h-60.8v305.2zm5.4-82.7h3.6v78.8h-3.6v-78.8zm0 75.2h50.1v3.6h-50.1v-3.6zm50.1 3.6h-3.6v-75h-46.5v-3.8h50.1v78.8zm-50.1-41.2h50.1v3.6h-50.1v-3.6zm0-18.8h50.1v3.6h-50.1v-3.6zm0 37.6h50.1v3.6h-50.1v-3.6zm-9.1-91.2h68v3.6h-68v-3.6zm9.1-83.2h3.6v78.8h-3.6v-78.8zm0 75.2h50.1v3.6h-50.1v-3.6zm50.1 3.6h-3.6v-75.1h-46.5v-3.6h50.1v78.7zm-50.1-41.2h50.1v3.6h-50.1v-3.6zm0-18.8h50.1v3.6h-50.1v-3.6zm0 37.6h50.1v3.6h-50.1v-3.6zm-9.1-98.8h68v3.6h-68v-3.6zm9.1-65.8h3.6v61.4h-3.6v-61.4zm0 57.7h50.1v3.6h-50.1v-3.6zm0-37.5h50.1v3.6h-50.1v-3.6zm0 18.7h50.1v3.6h-50.1v-3.6zm46.5-38.9h3.6v61.4h-3.6v-61.4zm160.3-14.2h3.6v348.8h-3.6v-348.8zm-100.2 0h103.8v3.6h-103.8v-3.6zm0 345.2h103.8v3.6h-103.8v-3.6zm0-345.2h3.6v348.8h-3.6v-348.8zm103.8 348.8h-103.8v-348.8h103.8v348.8zm-100.2-3.6h96.6v-341.6h-96.6v341.6zm89.5-10.7h-82.4v-320.2h82.4v320.2zm-78.8-3.6h75.1v-313h-75.1v313zm71.5-4.2h-68v-312.4h68v312.4zm-64.4-3.6h60.8v-305.2h-60.8v305.2zm5.3-82.7h3.6v78.8h-3.6v-78.8zm0 75.2h50.1v3.6h-50.1v-3.6zm50.2 3.6h-3.6v-75h-46.6v-3.8h50.2v78.8zm-50.2-41.2h50.1v3.6h-50.1v-3.6zm0-18.8h50.1v3.6h-50.1v-3.6zm0 37.6h50.1v3.6h-50.1v-3.6zm-8.9-91.2h68v3.6h-68v-3.6zm8.9-83.2h3.6v78.8h-3.6v-78.8zm0 75.2h50.1v3.6h-50.1v-3.6zm50.2 3.6h-3.6v-75.1h-46.6v-3.6h50.2v78.7zm-50.2-41.2h50.1v3.6h-50.1v-3.6zm0-18.8h50.1v3.6h-50.1v-3.6zm0 37.6h50.1v3.6h-50.1v-3.6zm-8.9-98.8h68v3.6h-68v-3.6zm8.9-65.8h3.6v61.4h-3.6v-61.4zm0 57.7h50.1v3.6h-50.1v-3.6zm0-37.5h50.1v3.6h-50.1v-3.6zm0 18.7h50.1v3.6h-50.1v-3.6zm46.6-38.9h3.6v61.4h-3.6v-61.4zm160.2-14.2h3.6v348.8h-3.6v-348.8zm-100.2 0h103.8v3.6h-103.8v-3.6zm0 345.2h103.8v3.6h-103.8v-3.6zm0-345.2h3.6v348.8h-3.6v-348.8zm103.9 348.8h-103.8v-348.8h103.8v348.8zm-100.2-3.6h96.6v-341.6h-96.6v341.6zm89.4-10.7h-82.4v-320.2h82.4v320.2zm-78.7-3.6h75.1v-313h-75.1v313zm71.6-4.2h-68v-312.4h68v312.4zm-64.5-3.6h60.8v-305.2h-60.8v305.2zm5.3-82.7h3.6v78.8h-3.6v-78.8zm0 75.2h50.1v3.6h-50.1v-3.6zm50.3 3.6h-3.6v-75h-46.6v-3.8h50.2v78.8zm-50.3-41.2h50.1v3.6h-50.1v-3.6zm0-18.8h50.1v3.6h-50.1v-3.6zm0 37.6h50.1v3.6h-50.1v-3.6zm-8.9-91.2h68v3.6h-68v-3.6zm8.9-83.2h3.6v78.8h-3.6v-78.8zm0 75.2h50.1v3.6h-50.1v-3.6zm50.3 3.6h-3.6v-75.1h-46.6v-3.6h50.2v78.7zm-50.3-41.2h50.1v3.6h-50.1v-3.6zm0-18.8h50.1v3.6h-50.1v-3.6zm0 37.6h50.1v3.6h-50.1v-3.6zm-8.9-98.8h68v3.6h-68v-3.6zm8.9-65.8h3.6v61.4h-3.6v-61.4zm0 57.7h50.1v3.6h-50.1v-3.6zm0-37.5h50.1v3.6h-50.1v-3.6zm0 18.7h50.1v3.6h-50.1v-3.6zm46.6-38.9h3.6v61.4h-3.6v-61.4zm198.2-78.6h-3.6v-196.8h-563.8v196.7h-3.7v-200.3h571v200.4zm-232.9 0h-3.6v-64.4h-110.8v64.4h-3.6v-68h118v68zm10.8-64.5h-14.5v-3.6h10.7v-7.1h-132.1v7.1h10.7v3.6h-14.5v-14.3h139.7v14.3zm-316.1 540.3h503.8v3.6h-503.8v-3.6zm219.1 10.7h3.6v103.8h-3.6v-103.8zm-10.7 0h3.6v103.8h-3.6v-103.8zm72.5 0h3.6v103.8h-3.6v-103.8zm10.7 0h3.6v103.8h-3.6v-103.8zm-72.5 57.2h65.5v3.6h-65.5v-3.6zm-10.7 16.2h14.3v3.6h-14.3v-3.6zm72.5 0h14.3v3.6h-14.3v-3.6zm-147.6-84.1h3.6v114.5h-3.6v-114.5zm-10.9 0h3.6v114.5h-3.6v-114.5zm0 84.1h14.3v3.6h-14.3v-3.6zm244.4-84.1h3.6v114.5h-3.6v-114.5zm10.8 0h3.6v114.5h-3.6v-114.5zm-10.8 84.1h14.3v3.6h-14.3v-3.6zm-233.5-73.4h237.2v3.6h-237.2v-3.6zm0 25.1h78.8v3.6h-78.8v-3.6zm158.3 0h78.8v3.6h-78.8v-3.6zm37.6 0h3.6v78.8h-3.6v-78.8zm-158.4 0h3.6v78.8h-3.6v-78.8zm-170.8 0h125.6v3.6h-125.6v-3.6zm0-25.1h125.6v3.6h-125.6v-3.6zm377.6 25.1h126.2v3.6h-126.2v-3.6zm0-25.1h126.2v3.6h-126.2v-3.6zM135.6 712h3.6v78.8h-3.6v-78.8zm-41 0h3.6v78.8h-3.6v-78.8zM513.2 712h3.6v78.8h-3.6v-78.8zm-40.9 0h3.6v78.8h-3.6v-78.8z"/></svg>