<?xml version="1.0" encoding="UTF-8" standalone="no"?>
<svg width="92px" height="93px" viewBox="0 0 92 93" version="1.1" xmlns="http://www.w3.org/2000/svg" xmlns:xlink="http://www.w3.org/1999/xlink" xmlns:sketch="http://www.bohemiancoding.com/sketch/ns">
    <!-- Generator: Sketch 3.3.2 (12043) - http://www.bohemiancoding.com/sketch -->
    <title>Fill 29</title>
    <desc>Created with Sketch.</desc>
    <defs></defs>
    <g id="Page-1" stroke="none" stroke-width="1" fill="none" fill-rule="evenodd" sketch:type="MSPage">
        <g id="Entypo" sketch:type="MSLayerGroup" transform="translate(-604.000000, -1146.000000)" fill="#fff" opacity="0.2">
            <path d="M675.17,1204.76 C676.981,1201.05 678,1196.89 678,1192.49 C678,1188.08 676.981,1183.92 675.17,1180.21 L685.483,1174.02 C688.282,1179.4 689.911,1185.48 689.997,1191.95 C690.088,1198.8 688.448,1205.27 685.487,1210.95 L675.17,1204.76 L675.17,1204.76 Z M650,1214.49 C637.85,1214.49 628,1204.64 628,1192.49 C628,1180.34 637.85,1170.49 650,1170.49 C662.151,1170.49 672,1180.34 672,1192.49 C672,1204.64 662.151,1214.49 650,1214.49 L650,1214.49 Z M650.536,1232.48 C643.684,1232.57 637.213,1230.93 631.536,1227.97 L637.727,1217.66 C641.432,1219.47 645.596,1220.49 650,1220.49 C654.403,1220.49 658.567,1219.47 662.272,1217.66 L668.459,1227.97 C663.09,1230.77 657.004,1232.4 650.536,1232.48 L650.536,1232.48 Z M624.831,1204.76 L614.518,1210.95 C611.719,1205.58 610.09,1199.49 610.004,1193.02 C609.912,1186.17 611.551,1179.7 614.512,1174.02 L624.831,1180.21 C623.02,1183.92 622,1188.08 622,1192.49 C622,1196.89 623.02,1201.05 624.831,1204.76 L624.831,1204.76 Z M649.465,1152.49 C656.317,1152.4 662.787,1154.04 668.465,1157 L662.274,1167.32 C658.567,1165.5 654.403,1164.49 650,1164.49 C645.596,1164.49 641.432,1165.51 637.725,1167.32 L631.537,1157 C636.909,1154.2 642.994,1152.57 649.465,1152.49 L649.465,1152.49 Z M649.385,1146.49 C623.983,1146.83 603.667,1167.7 604.004,1193.1 C604.344,1218.51 625.213,1238.82 650.614,1238.48 C676.018,1238.14 696.334,1217.27 695.997,1191.87 C695.655,1166.47 674.786,1146.15 649.385,1146.49 L649.385,1146.49 Z" id="Fill-29" sketch:type="MSShapeGroup"></path>
        </g>
    </g>
</svg>
