<?xml version="1.0" encoding="UTF-8" standalone="no"?>
<svg width="119px" height="201px" viewBox="0 0 119 201" version="1.1" xmlns="http://www.w3.org/2000/svg" xmlns:xlink="http://www.w3.org/1999/xlink" xmlns:sketch="http://www.bohemiancoding.com/sketch/ns">
    <!-- Generator: Sketch 3.3.2 (12043) - http://www.bohemiancoding.com/sketch -->
    <title>ABB-vert</title>
    <desc>Created with Sketch.</desc>
    <defs>
        <path id="path-1" d="M0.0649090909,0.2975 L118.389855,0.2975 L118.389855,200.071455 L0.0649090909,200.071455 L0.0649090909,0.2975 Z"></path>
        <path id="path-3" d="M0.0649090909,0.2975 L118.389855,0.2975 L118.389855,200.071455 L0.0649090909,200.071455"></path>
    </defs>
    <g id="Page-1" stroke="none" stroke-width="1" fill="none" fill-rule="evenodd" sketch:type="MSPage">
        <g id="ABB-vert" sketch:type="MSLayerGroup">
            <path d="M32.1711091,160.168591 L19.2271545,160.168591 L19.2271545,134.204955 L22.7841727,134.204955 L22.7841727,156.686218 L32.1711091,156.686218 L32.1711091,160.168591" id="Fill-1" fill="#222321" sketch:type="MSShapeGroup"></path>
            <path d="M45.9480636,151.236018 C45.9480636,150.025464 44.9636091,148.965282 43.8277,148.965282 L38.6814909,148.965282 L38.6814909,156.610491 L43.8277,156.610491 C45.0393364,156.610491 45.9480636,155.551391 45.9480636,154.415482 L45.9480636,151.236018 L45.9480636,151.236018 Z M45.9480636,139.958064 C45.9480636,138.746427 44.9636091,137.761973 43.8277,137.761973 L38.6814909,137.761973 L38.6814909,145.558636 L43.8277,145.558636 C45.0393364,145.558636 45.9480636,144.499536 45.9480636,143.2879 L45.9480636,139.958064 L45.9480636,139.958064 Z M49.5808091,154.415482 C49.5808091,157.594945 46.9314364,160.168591 43.8277,160.168591 L35.1233909,160.168591 L35.1233909,134.204955 L43.8277,134.204955 C46.9314364,134.204955 49.5808091,136.7786 49.5808091,139.958064 L49.5808091,143.2879 C49.5808091,144.878173 48.8246182,146.315909 47.6887091,147.224636 C48.8246182,148.208009 49.5808091,149.646827 49.5808091,151.236018 L49.5808091,154.415482 L49.5808091,154.415482 Z" id="Fill-2" fill="#222321" sketch:type="MSShapeGroup"></path>
            <path d="M67.0673182,156.610491 L67.0673182,160.092864 L54.1233636,160.092864 L54.1233636,134.204955 L67.0673182,134.204955 L67.0673182,137.686245 L57.6803818,137.686245 L57.6803818,145.483991 L65.6285,145.483991 L65.6285,148.965282 L57.6803818,148.965282 L57.6803818,156.686218 L67.0673182,156.686218 L67.0673182,156.610491" id="Fill-3" fill="#222321" sketch:type="MSShapeGroup"></path>
            <path d="M74.9397091,147.981909 L79.3297273,147.981909 C80.4656364,147.981909 81.4490091,146.921727 81.4490091,145.785818 L81.4490091,139.958064 C81.4490091,138.746427 80.4656364,137.686245 79.3297273,137.686245 L74.9397091,137.686245 L74.9397091,147.981909 L74.9397091,147.981909 Z M81.6004636,160.168591 L77.2104455,151.4632 L74.9397091,151.4632 L74.9397091,160.168591 L71.3816091,160.168591 L71.3816091,134.204955 L79.3297273,134.204955 C82.4334636,134.204955 85.0828364,136.7786 85.0828364,139.958064 L85.0828364,145.785818 C85.0828364,148.283736 83.3421909,150.479827 81.0714545,151.236018 L85.5372,160.168591 L81.6004636,160.168591 L81.6004636,160.168591 Z" id="Fill-4" fill="#222321" sketch:type="MSShapeGroup"></path>
            <path d="M96.4376,137.686245 L96.4376,160.168591 L92.8037727,160.168591 L92.8037727,137.686245 L88.1865727,137.686245 L88.1865727,134.204955 L101.206255,134.204955 L101.206255,137.686245 L96.4376,137.686245" id="Fill-5" fill="#222321" sketch:type="MSShapeGroup"></path>
            <g id="Group-9">
                <mask id="mask-2" sketch:name="Clip 7" fill="white">
                    <use xlink:href="#path-1"></use>
                </mask>
                <g id="Clip-7"></g>
                <path d="M107.640909,150.479827 L114.756027,150.479827 L114.756027,141.017164 L114.756027,140.109518 C114.6803,139.5037 114.528845,138.973609 114.301664,138.443518 C113.998755,137.8377 113.544391,137.384418 112.939655,137.081509 C112.561018,136.854327 112.106655,136.7786 111.652291,136.702873 C110.970745,136.627145 110.366009,136.702873 109.760191,137.005782 C108.927191,137.384418 108.3971,137.989155 108.094191,138.746427 C107.868091,139.352245 107.716636,140.033791 107.716636,140.714255 C107.640909,144.348082 107.640909,150.479827 107.640909,150.479827 L107.640909,150.479827 Z M110.743564,133.523409 L111.728018,133.523409 L111.879473,133.523409 C112.182382,133.523409 112.409564,133.599136 112.712473,133.599136 C113.620118,133.750591 114.453118,134.0535 115.210391,134.507864 C115.890855,134.961145 116.496673,135.491236 116.951036,136.097055 C117.481127,136.7786 117.859764,137.535873 118.086945,138.367791 C118.314127,139.125064 118.389855,139.882336 118.389855,140.714255 L118.389855,159.865682 L118.389855,160.092864 L114.756027,160.092864 L114.756027,153.809664 L107.640909,153.809664 L107.640909,160.092864 L104.007082,160.092864 L104.007082,140.185245 C104.007082,139.806609 104.082809,139.427973 104.158536,139.200791 C104.234264,138.594973 104.461445,137.989155 104.688627,137.460145 C105.217636,136.324236 105.974909,135.339782 107.035091,134.659318 C108.019545,134.0535 109.002918,133.674864 110.138827,133.523409 L110.743564,133.523409 L110.743564,133.523409 Z" id="Fill-6" fill="#222321" sketch:type="MSShapeGroup" mask="url(#mask-2)"></path>
                <path d="M3.63382727,150.479827 L10.7489455,150.479827 L10.7489455,141.017164 L10.7489455,140.109518 C10.6732182,139.5037 10.5217636,138.973609 10.2945818,138.443518 C9.99167273,137.8377 9.53730909,137.384418 8.93257273,137.081509 C8.55393636,136.854327 8.09957273,136.7786 7.64520909,136.702873 C6.96366364,136.627145 6.35892727,136.702873 5.75310909,137.005782 C4.92010909,137.384418 4.39001818,137.989155 4.08710909,138.746427 C3.86100909,139.352245 3.70955455,140.033791 3.70955455,140.714255 C3.63382727,144.348082 3.63382727,150.479827 3.63382727,150.479827 L3.63382727,150.479827 Z M6.73648182,133.523409 L7.72093636,133.523409 L7.87239091,133.523409 C8.1753,133.523409 8.40248182,133.599136 8.70539091,133.599136 C9.61303636,133.750591 10.4460364,134.0535 11.2033091,134.507864 C11.8848545,134.961145 12.4895909,135.491236 12.9439545,136.097055 C13.4740455,136.7786 13.8526818,137.535873 14.0798636,138.367791 C14.3070455,139.125064 14.3827727,139.882336 14.3827727,140.714255 L14.3827727,159.865682 L14.3827727,160.092864 L10.7489455,160.092864 L10.7489455,153.809664 L3.63382727,153.809664 L3.63382727,160.092864 L0,160.092864 L0,140.185245 C0,139.806609 0.0757272727,139.427973 0.151454545,139.200791 C0.227181818,138.594973 0.454363636,137.989155 0.681545455,137.460145 C1.21163636,136.324236 1.96782727,135.339782 3.02800909,134.659318 C4.01246364,134.0535 4.99583636,133.674864 6.13174545,133.523409 L6.73648182,133.523409 L6.73648182,133.523409 Z" id="Fill-8" fill="#222321" sketch:type="MSShapeGroup" mask="url(#mask-2)"></path>
            </g>
            <path d="M27.7053636,190.4476 C27.7053636,189.235964 26.7209091,188.175782 25.585,188.175782 L20.4377091,188.175782 L20.4377091,195.822073 L25.585,195.822073 C26.7966364,195.822073 27.7053636,194.761891 27.7053636,193.625982 L27.7053636,190.4476 L27.7053636,190.4476 Z M27.7053636,179.168564 C27.7053636,177.956927 26.7209091,176.973555 25.585,176.973555 L20.4377091,176.973555 L20.4377091,184.770218 L25.585,184.770218 C26.7966364,184.770218 27.7053636,183.710036 27.7053636,182.499482 L27.7053636,179.168564 L27.7053636,179.168564 Z M31.2623818,193.625982 C31.2623818,196.805445 28.6130091,199.379091 25.5092727,199.379091 L16.8049636,199.379091 L16.8049636,173.415455 L25.5092727,173.415455 C28.6130091,173.415455 31.2623818,175.9891 31.2623818,179.168564 L31.2623818,182.499482 C31.2623818,184.088673 30.5051091,185.526409 29.3702818,186.435136 C30.5051091,187.419591 31.2623818,188.857327 31.2623818,190.4476 L31.2623818,193.625982 L31.2623818,193.625982 Z" id="Fill-10" fill="#222321" sketch:type="MSShapeGroup"></path>
            <g id="Group-15">
                <mask id="mask-4" sketch:name="Clip 12" fill="white">
                    <use xlink:href="#path-3"></use>
                </mask>
                <g id="Clip-12"></g>
                <path d="M48.3702545,199.379091 L35.4263,199.379091 L35.4263,173.415455 L38.9833182,173.415455 L38.9833182,195.8978 L48.3702545,195.8978 L48.3702545,199.379091" id="Fill-11" fill="#222321" sketch:type="MSShapeGroup" mask="url(#mask-4)"></path>
                <path d="M60.9355727,179.925836 C60.9355727,177.805473 59.4978364,176.140555 57.3774727,176.140555 C55.2581909,176.140555 53.8204545,177.805473 53.8204545,179.925836 L53.8204545,192.945518 C53.8204545,195.0648 55.2581909,196.653991 57.3774727,196.653991 C59.4978364,196.653991 60.9355727,194.989073 60.9355727,192.945518 L60.9355727,179.925836 L60.9355727,179.925836 Z M64.6451273,192.945518 C64.6451273,196.9569 61.3899364,200.136364 57.3774727,200.136364 C53.3660909,200.136364 50.1109,196.9569 50.1109,192.945518 L50.1109,179.925836 C50.1109,175.913373 53.3660909,172.733909 57.3774727,172.733909 C61.3899364,172.733909 64.6451273,175.913373 64.6451273,179.925836 L64.6451273,192.945518 L64.6451273,192.945518 Z" id="Fill-13" fill="#222321" sketch:type="MSShapeGroup" mask="url(#mask-4)"></path>
                <path d="M82.8878273,192.945518 C82.8878273,196.9569 79.6326364,200.136364 75.6212545,200.136364 C71.6087909,200.136364 68.3536,196.9569 68.3536,192.945518 L68.3536,179.925836 C68.3536,175.913373 71.6087909,172.733909 75.6212545,172.733909 C79.6326364,172.733909 82.8878273,175.913373 82.8878273,179.925836 L82.8878273,182.045118 L79.254,182.045118 L79.254,179.925836 C79.254,177.805473 77.8162636,176.140555 75.6969818,176.140555 C73.5008909,176.140555 72.1388818,177.805473 72.1388818,179.925836 L72.1388818,192.945518 C72.1388818,195.0648 73.5766182,196.653991 75.6969818,196.653991 C77.8919909,196.653991 79.254,194.989073 79.254,192.945518 L79.254,190.750509 L82.8878273,190.750509 L82.8878273,192.945518" id="Fill-14" fill="#222321" sketch:type="MSShapeGroup" mask="url(#mask-4)"></path>
            </g>
            <path d="M38.6814909,6.50497273 L79.4811818,6.50497273 L79.4811818,35.5723455 L64.1907636,54.1936818 L79.4811818,72.8150182 L79.4811818,84.0183273 L85.7643818,84.0183273 L85.7643818,70.5442818 L72.3660636,54.1936818 L85.7643818,37.8430818 L85.7643818,3.40123636 C85.7643818,1.65950909 84.3255636,0.2975 82.6606455,0.2975 L32.3982909,0.2975 L32.3982909,13.923 L38.6804091,13.923 L38.6814909,6.50497273" id="Fill-16" fill="#B48B40" sketch:type="MSShapeGroup"></path>
            <path d="M79.5569091,94.5400909 L79.5569091,101.882391 L38.7561364,101.882391 L38.7561364,24.2933091 L32.4740182,24.2933091 L32.4740182,108.088782 L82.6606455,108.088782 C84.4012909,108.088782 85.7643818,106.651045 85.7643818,104.986127 L85.7643818,94.5400909 L79.5569091,94.5400909" id="Fill-17" fill="#B48B40" sketch:type="MSShapeGroup"></path>
            <path d="M51.2468091,15.8908273 L19.8318909,15.8908273 C18.0912455,15.8908273 16.7292364,17.3296455 16.7292364,18.9945636 L16.7292364,92.344 L23.0113545,92.344 L23.0113545,57.2216909 L30.3547364,57.2216909 L30.3547364,50.9384909 L23.0113545,50.9384909 L23.0113545,22.1740273 L48.1430727,22.1740273 L48.1430727,51.0142182 L40.8007727,51.0142182 L40.8007727,57.2974182 L48.1430727,57.2974182 L48.1430727,92.4197273 L54.4251909,92.4197273 L54.4251909,19.0702909 C54.4262727,17.3296455 52.9874545,15.8908273 51.2468091,15.8908273" id="Fill-18" fill="#222321" sketch:type="MSShapeGroup"></path>
            <path d="M101.509164,42.4602818 L101.509164,19.0702909 C101.509164,17.3296455 100.070345,15.9665545 98.4054273,15.9665545 L87.9593909,15.9665545 L87.9593909,22.2497545 L95.3016909,22.2497545 L95.3016909,41.4011818 L84.7799273,54.1936818 L95.3016909,66.9861818 L95.3016909,86.1376091 L70.2467818,86.1376091 L70.2467818,22.1740273 L77.5133545,22.1740273 L77.5133545,15.8908273 L63.9635818,15.8908273 L63.9635818,92.4197273 L98.4811545,92.4197273 C100.2218,92.4197273 101.584891,90.9819909 101.584891,89.3170727 L101.584891,65.926 C101.584891,65.1698091 101.357709,64.4882636 100.903345,63.9581727 L92.9552273,54.2694091 L100.903345,44.5795636 C101.206255,43.8991 101.509164,43.1418273 101.509164,42.4602818" id="Fill-19" fill="#222321" sketch:type="MSShapeGroup"></path>
            <path d="M101.357709,173.415455 L97.4209727,173.415455 L93.0309545,184.770218 L90.6087636,184.770218 L90.6087636,173.415455 L87.1263909,173.415455 L87.1263909,199.379091 L90.6087636,199.379091 L90.6087636,188.251509 L93.0309545,188.251509 L97.4209727,199.379091 L101.357709,199.379091 L96.1346909,186.435136 L101.357709,173.415455" id="Fill-20" fill="#222321" sketch:type="MSShapeGroup"></path>
        </g>
    </g>
</svg>