<?xml version="1.0" encoding="UTF-8" standalone="no"?>
<svg width="100px" height="89px" viewBox="0 0 100 89" version="1.1" xmlns="http://www.w3.org/2000/svg" xmlns:xlink="http://www.w3.org/1999/xlink" xmlns:sketch="http://www.bohemiancoding.com/sketch/ns">
    <!-- Generator: Sketch 3.3.2 (12043) - http://www.bohemiancoding.com/sketch -->
    <title>Fill 134</title>
    <desc>Created with Sketch.</desc>
    <defs></defs>
    <g id="Page-1" stroke="none" stroke-width="1" fill="none" fill-rule="evenodd" sketch:type="MSPage">
        <g id="Entypo" sketch:type="MSLayerGroup" transform="translate(-400.000000, -948.000000)" fill="#fff" opacity="0.2">
            <path d="M413.699,1027.74 C412.659,1028.79 412.659,1030.49 413.698,1031.54 L418.454,1036.18 C419.495,1037.23 421.145,1036.79 422.185,1035.74 L446.723,1011.62 L439.202,1003.06 L413.699,1027.74 L413.699,1027.74 Z M499.514,959.429 C499.142,956.958 497.861,957.481 497.2,958.527 C496.539,959.575 493.595,964.032 492.385,966.051 C491.183,968.059 488.228,972.006 482.716,968.107 C476.976,964.048 478.972,961.217 479.975,959.31 C480.977,957.397 484.064,952.033 484.508,951.36 C484.953,950.688 484.435,948.725 482.654,949.547 C480.87,950.37 470.04,954.676 468.536,960.843 C467.003,967.129 469.822,972.739 464.286,978.316 L457.575,985.318 L464.316,993.156 L472.589,985.304 C474.563,983.32 478.768,981.397 482.579,982.261 C490.744,984.109 495.197,981.041 497.88,975.975 C500.282,971.439 499.884,961.899 499.514,959.429 L499.514,959.429 Z M444.215,979.515 C443.618,978.824 442.876,978.808 442.228,979.376 L435.057,985.631 C434.494,986.127 434.419,987.05 434.923,987.631 L476.394,1034.82 C477.362,1035.94 479.044,1036.06 480.152,1035.08 L485.005,1031.02 C486.111,1030.05 486.227,1028.35 485.26,1027.23 L444.215,979.515 L444.215,979.515 Z M415.672,976.933 C420.339,973.31 424.208,975.806 429.376,981.785 C429.958,982.455 430.739,981.671 431.181,981.282 C431.623,980.895 438.439,974.765 438.771,974.476 C439.104,974.184 439.505,973.636 438.974,973.021 C438.445,972.405 436.503,969.897 435.261,968.272 C426.222,956.446 459.994,948.429 454.803,948.298 C452.166,948.231 441.574,948.108 439.994,948.275 C433.574,948.957 425.523,954.949 421.466,957.737 C416.167,961.379 414.185,963.502 413.854,963.793 C412.356,965.105 413.613,968.131 410.896,970.511 C408.02,973.036 406.228,971.132 404.566,972.588 C403.737,973.318 401.431,975.045 400.768,975.627 C400.103,976.211 399.985,977.197 400.661,977.98 C400.661,977.98 406.979,984.963 407.511,985.575 C408.042,986.193 409.464,986.713 410.349,985.935 C411.236,985.159 413.505,983.167 413.892,982.824 C414.282,982.487 413.638,978.512 415.672,976.933 L415.672,976.933 Z" id="Fill-134" sketch:type="MSShapeGroup"></path>
        </g>
    </g>
</svg>
