<?xml version="1.0" encoding="UTF-8" standalone="no"?>
<svg width="412px" height="569px" viewBox="0 0 412 569" version="1.1" xmlns="http://www.w3.org/2000/svg" xmlns:xlink="http://www.w3.org/1999/xlink" xmlns:sketch="http://www.bohemiancoding.com/sketch/ns">
    <!-- Generator: Sketch 3.3.2 (12043) - http://www.bohemiancoding.com/sketch -->
    <title>Slice 1</title>
    <desc>Created with Sketch.</desc>
    <defs></defs>
    <g id="Page-1" stroke="none" stroke-width="1" fill="none" fill-rule="evenodd" sketch:type="MSPage">
        <g id="abb-wireframe" sketch:type="MSLayerGroup" fill="#F7F7F7">
            <path d="M411.1,568.3 L0.7,568.3 L0.7,141.4 L411.1,141.4 L411.1,568.3 L411.1,568.3 Z M3.3,565.7 L408.5,565.7 L408.5,144 L3.3,144 L3.3,565.7 L3.3,565.7 Z" id="Shape" sketch:type="MSShapeGroup"></path>
            <path d="M3.3,568.3 L0.7,568.3 L0.7,475.7 L411.1,475.7 L411.1,478.3 L3.3,478.3 L3.3,568.3 Z" id="Shape" sketch:type="MSShapeGroup"></path>
            <path d="M411.1,478.3 L0.7,478.3 L0.7,464.1 L411.1,464.1 L411.1,478.3 L411.1,478.3 Z M3.3,475.7 L408.5,475.7 L408.5,466.7 L3.3,466.7 L3.3,475.7 L3.3,475.7 Z" id="Shape" sketch:type="MSShapeGroup"></path>
            <rect id="Rectangle-path" sketch:type="MSShapeGroup" x="24.2" y="475.7" width="2.6" height="92.6"></rect>
            <rect id="Rectangle-path" sketch:type="MSShapeGroup" x="383.8" y="475.7" width="2.6" height="92.6"></rect>
            <rect id="Rectangle-path" sketch:type="MSShapeGroup" x="383.8" y="542.5" width="27.2" height="2.6"></rect>
            <rect id="Rectangle-path" sketch:type="MSShapeGroup" x="0.7" y="542.5" width="26.1" height="2.6"></rect>
            <rect id="Rectangle-path" sketch:type="MSShapeGroup" x="383.8" y="190.3" width="2.6" height="250.7"></rect>
            <rect id="Rectangle-path" sketch:type="MSShapeGroup" x="311.8" y="190.3" width="74.6" height="2.6"></rect>
            <rect id="Rectangle-path" sketch:type="MSShapeGroup" x="311.8" y="438.4" width="74.6" height="2.6"></rect>
            <rect id="Rectangle-path" sketch:type="MSShapeGroup" x="311.8" y="190.3" width="2.6" height="250.7"></rect>
            <path d="M386.4,441 L311.8,441 L311.8,190.3 L386.4,190.3 L386.4,441 L386.4,441 Z M314.4,438.4 L383.8,438.4 L383.8,192.9 L314.4,192.9 L314.4,438.4 L314.4,438.4 Z" id="Shape" sketch:type="MSShapeGroup"></path>
            <path d="M378.7,430.7 L319.5,430.7 L319.5,200.6 L378.7,200.6 L378.7,430.7 L378.7,430.7 Z M322.2,428.1 L376.2,428.1 L376.2,203.2 L322.2,203.2 L322.2,428.1 L322.2,428.1 Z" id="Shape" sketch:type="MSShapeGroup"></path>
            <path d="M373.6,425.1 L324.7,425.1 L324.7,200.6 L373.6,200.6 L373.6,425.1 L373.6,425.1 Z M327.3,422.5 L371,422.5 L371,203.2 L327.3,203.2 L327.3,422.5 L327.3,422.5 Z" id="Shape" sketch:type="MSShapeGroup"></path>
            <rect id="Rectangle-path" sketch:type="MSShapeGroup" x="331.1" y="363.1" width="2.6" height="56.6"></rect>
            <rect id="Rectangle-path" sketch:type="MSShapeGroup" x="331.1" y="417.1" width="36" height="2.6"></rect>
            <path d="M367.2,419.7 L364.5,419.7 L364.5,365.8 L331.1,365.8 L331.1,363.1 L367.2,363.1 L367.2,419.7 Z" id="Shape" sketch:type="MSShapeGroup"></path>
            <rect id="Rectangle-path" sketch:type="MSShapeGroup" x="331.1" y="390.1" width="36" height="2.6"></rect>
            <rect id="Rectangle-path" sketch:type="MSShapeGroup" x="331.1" y="376.6" width="36" height="2.6"></rect>
            <rect id="Rectangle-path" sketch:type="MSShapeGroup" x="331.1" y="403.6" width="36" height="2.6"></rect>
            <rect id="Rectangle-path" sketch:type="MSShapeGroup" x="324.7" y="338.1" width="48.9" height="2.6"></rect>
            <rect id="Rectangle-path" sketch:type="MSShapeGroup" x="331.1" y="278.3" width="2.6" height="56.6"></rect>
            <rect id="Rectangle-path" sketch:type="MSShapeGroup" x="331.1" y="332.3" width="36" height="2.6"></rect>
            <path d="M367.2,334.9 L364.5,334.9 L364.5,280.9 L331.1,280.9 L331.1,278.3 L367.2,278.3 L367.2,334.9 Z" id="Shape" sketch:type="MSShapeGroup"></path>
            <rect id="Rectangle-path" sketch:type="MSShapeGroup" x="331.1" y="305.3" width="36" height="2.6"></rect>
            <rect id="Rectangle-path" sketch:type="MSShapeGroup" x="331.1" y="291.8" width="36" height="2.6"></rect>
            <rect id="Rectangle-path" sketch:type="MSShapeGroup" x="331.1" y="318.8" width="36" height="2.6"></rect>
            <rect id="Rectangle-path" sketch:type="MSShapeGroup" x="324.7" y="247.8" width="48.9" height="2.6"></rect>
            <rect id="Rectangle-path" sketch:type="MSShapeGroup" x="331.1" y="200.5" width="2.6" height="44.1"></rect>
            <rect id="Rectangle-path" sketch:type="MSShapeGroup" x="331.1" y="242" width="36" height="2.6"></rect>
            <rect id="Rectangle-path" sketch:type="MSShapeGroup" x="331.1" y="215" width="36" height="2.6"></rect>
            <rect id="Rectangle-path" sketch:type="MSShapeGroup" x="331.1" y="228.5" width="36" height="2.6"></rect>
            <rect id="Rectangle-path" sketch:type="MSShapeGroup" x="364.5" y="200.5" width="2.6" height="44.1"></rect>
            <rect id="Rectangle-path" sketch:type="MSShapeGroup" x="96.2" y="190.3" width="2.6" height="250.7"></rect>
            <rect id="Rectangle-path" sketch:type="MSShapeGroup" x="24.2" y="190.3" width="74.6" height="2.6"></rect>
            <rect id="Rectangle-path" sketch:type="MSShapeGroup" x="24.2" y="438.4" width="74.6" height="2.6"></rect>
            <rect id="Rectangle-path" sketch:type="MSShapeGroup" x="24.2" y="190.3" width="2.6" height="250.7"></rect>
            <path d="M98.8,441 L24.2,441 L24.2,190.3 L98.8,190.3 L98.8,441 L98.8,441 Z M26.8,438.4 L96.2,438.4 L96.2,192.9 L26.8,192.9 L26.8,438.4 L26.8,438.4 Z" id="Shape" sketch:type="MSShapeGroup"></path>
            <path d="M91.1,430.7 L31.9,430.7 L31.9,200.6 L91.1,200.6 L91.1,430.7 L91.1,430.7 Z M34.5,428.1 L88.5,428.1 L88.5,203.2 L34.5,203.2 L34.5,428.1 L34.5,428.1 Z" id="Shape" sketch:type="MSShapeGroup"></path>
            <path d="M85.9,425.1 L37,425.1 L37,200.6 L85.9,200.6 L85.9,425.1 L85.9,425.1 Z M39.6,422.5 L83.3,422.5 L83.3,203.2 L39.6,203.2 L39.6,422.5 L39.6,422.5 Z" id="Shape" sketch:type="MSShapeGroup"></path>
            <rect id="Rectangle-path" sketch:type="MSShapeGroup" x="43.5" y="363.1" width="2.6" height="56.6"></rect>
            <rect id="Rectangle-path" sketch:type="MSShapeGroup" x="43.5" y="417.1" width="36" height="2.6"></rect>
            <path d="M79.5,419.7 L76.9,419.7 L76.9,365.8 L43.5,365.8 L43.5,363.1 L79.5,363.1 L79.5,419.7 Z" id="Shape" sketch:type="MSShapeGroup"></path>
            <rect id="Rectangle-path" sketch:type="MSShapeGroup" x="43.5" y="390.1" width="36" height="2.6"></rect>
            <rect id="Rectangle-path" sketch:type="MSShapeGroup" x="43.5" y="376.6" width="36" height="2.6"></rect>
            <rect id="Rectangle-path" sketch:type="MSShapeGroup" x="43.5" y="403.6" width="36" height="2.6"></rect>
            <rect id="Rectangle-path" sketch:type="MSShapeGroup" x="37" y="338.1" width="48.9" height="2.6"></rect>
            <rect id="Rectangle-path" sketch:type="MSShapeGroup" x="43.5" y="278.3" width="2.6" height="56.6"></rect>
            <rect id="Rectangle-path" sketch:type="MSShapeGroup" x="43.5" y="332.3" width="36" height="2.6"></rect>
            <path d="M79.5,334.9 L76.9,334.9 L76.9,280.9 L43.5,280.9 L43.5,278.3 L79.5,278.3 L79.5,334.9 Z" id="Shape" sketch:type="MSShapeGroup"></path>
            <rect id="Rectangle-path" sketch:type="MSShapeGroup" x="43.5" y="305.3" width="36" height="2.6"></rect>
            <rect id="Rectangle-path" sketch:type="MSShapeGroup" x="43.5" y="291.8" width="36" height="2.6"></rect>
            <rect id="Rectangle-path" sketch:type="MSShapeGroup" x="43.5" y="318.8" width="36" height="2.6"></rect>
            <rect id="Rectangle-path" sketch:type="MSShapeGroup" x="37" y="247.8" width="48.9" height="2.6"></rect>
            <rect id="Rectangle-path" sketch:type="MSShapeGroup" x="43.5" y="200.5" width="2.6" height="44.1"></rect>
            <rect id="Rectangle-path" sketch:type="MSShapeGroup" x="43.5" y="242" width="36" height="2.6"></rect>
            <rect id="Rectangle-path" sketch:type="MSShapeGroup" x="43.5" y="215" width="36" height="2.6"></rect>
            <rect id="Rectangle-path" sketch:type="MSShapeGroup" x="43.5" y="228.5" width="36" height="2.6"></rect>
            <rect id="Rectangle-path" sketch:type="MSShapeGroup" x="76.9" y="200.5" width="2.6" height="44.1"></rect>
            <rect id="Rectangle-path" sketch:type="MSShapeGroup" x="192.1" y="190.3" width="2.6" height="250.7"></rect>
            <rect id="Rectangle-path" sketch:type="MSShapeGroup" x="120.1" y="190.3" width="74.6" height="2.6"></rect>
            <rect id="Rectangle-path" sketch:type="MSShapeGroup" x="120.1" y="438.4" width="74.6" height="2.6"></rect>
            <rect id="Rectangle-path" sketch:type="MSShapeGroup" x="120.1" y="190.3" width="2.6" height="250.7"></rect>
            <path d="M194.7,441 L120.1,441 L120.1,190.3 L194.7,190.3 L194.7,441 L194.7,441 Z M122.7,438.4 L192.1,438.4 L192.1,192.9 L122.7,192.9 L122.7,438.4 L122.7,438.4 Z" id="Shape" sketch:type="MSShapeGroup"></path>
            <path d="M187,430.7 L127.8,430.7 L127.8,200.6 L187,200.6 L187,430.7 L187,430.7 Z M130.4,428.1 L184.4,428.1 L184.4,203.2 L130.4,203.2 L130.4,428.1 L130.4,428.1 Z" id="Shape" sketch:type="MSShapeGroup"></path>
            <path d="M181.8,425.1 L132.9,425.1 L132.9,200.6 L181.8,200.6 L181.8,425.1 L181.8,425.1 Z M135.5,422.5 L179.2,422.5 L179.2,203.2 L135.5,203.2 L135.5,422.5 L135.5,422.5 Z" id="Shape" sketch:type="MSShapeGroup"></path>
            <rect id="Rectangle-path" sketch:type="MSShapeGroup" x="139.3" y="363.1" width="2.6" height="56.6"></rect>
            <rect id="Rectangle-path" sketch:type="MSShapeGroup" x="139.3" y="417.1" width="36" height="2.6"></rect>
            <path d="M175.4,419.7 L172.8,419.7 L172.8,365.8 L139.3,365.8 L139.3,363.1 L175.4,363.1 L175.4,419.7 Z" id="Shape" sketch:type="MSShapeGroup"></path>
            <rect id="Rectangle-path" sketch:type="MSShapeGroup" x="139.3" y="390.1" width="36" height="2.6"></rect>
            <rect id="Rectangle-path" sketch:type="MSShapeGroup" x="139.3" y="376.6" width="36" height="2.6"></rect>
            <rect id="Rectangle-path" sketch:type="MSShapeGroup" x="139.3" y="403.6" width="36" height="2.6"></rect>
            <rect id="Rectangle-path" sketch:type="MSShapeGroup" x="132.9" y="338.1" width="48.9" height="2.6"></rect>
            <rect id="Rectangle-path" sketch:type="MSShapeGroup" x="139.3" y="278.3" width="2.6" height="56.6"></rect>
            <rect id="Rectangle-path" sketch:type="MSShapeGroup" x="139.3" y="332.3" width="36" height="2.6"></rect>
            <path d="M175.4,334.9 L172.8,334.9 L172.8,280.9 L139.3,280.9 L139.3,278.3 L175.4,278.3 L175.4,334.9 Z" id="Shape" sketch:type="MSShapeGroup"></path>
            <rect id="Rectangle-path" sketch:type="MSShapeGroup" x="139.3" y="305.3" width="36" height="2.6"></rect>
            <rect id="Rectangle-path" sketch:type="MSShapeGroup" x="139.3" y="291.8" width="36" height="2.6"></rect>
            <rect id="Rectangle-path" sketch:type="MSShapeGroup" x="139.3" y="318.8" width="36" height="2.6"></rect>
            <rect id="Rectangle-path" sketch:type="MSShapeGroup" x="132.9" y="247.8" width="48.9" height="2.6"></rect>
            <rect id="Rectangle-path" sketch:type="MSShapeGroup" x="139.3" y="200.5" width="2.6" height="44.1"></rect>
            <rect id="Rectangle-path" sketch:type="MSShapeGroup" x="139.3" y="242" width="36" height="2.6"></rect>
            <rect id="Rectangle-path" sketch:type="MSShapeGroup" x="139.3" y="215" width="36" height="2.6"></rect>
            <rect id="Rectangle-path" sketch:type="MSShapeGroup" x="139.3" y="228.5" width="36" height="2.6"></rect>
            <rect id="Rectangle-path" sketch:type="MSShapeGroup" x="172.8" y="200.5" width="2.6" height="44.1"></rect>
            <rect id="Rectangle-path" sketch:type="MSShapeGroup" x="287.9" y="190.3" width="2.6" height="250.7"></rect>
            <rect id="Rectangle-path" sketch:type="MSShapeGroup" x="215.9" y="190.3" width="74.6" height="2.6"></rect>
            <rect id="Rectangle-path" sketch:type="MSShapeGroup" x="215.9" y="438.4" width="74.6" height="2.6"></rect>
            <rect id="Rectangle-path" sketch:type="MSShapeGroup" x="215.9" y="190.3" width="2.6" height="250.7"></rect>
            <path d="M290.6,441 L216,441 L216,190.3 L290.6,190.3 L290.6,441 L290.6,441 Z M218.6,438.4 L288,438.4 L288,192.9 L218.6,192.9 L218.6,438.4 L218.6,438.4 Z" id="Shape" sketch:type="MSShapeGroup"></path>
            <path d="M282.8,430.7 L223.6,430.7 L223.6,200.6 L282.8,200.6 L282.8,430.7 L282.8,430.7 Z M226.3,428.1 L280.3,428.1 L280.3,203.2 L226.3,203.2 L226.3,428.1 L226.3,428.1 Z" id="Shape" sketch:type="MSShapeGroup"></path>
            <path d="M277.7,425.1 L228.8,425.1 L228.8,200.6 L277.7,200.6 L277.7,425.1 L277.7,425.1 Z M231.4,422.5 L275.1,422.5 L275.1,203.2 L231.4,203.2 L231.4,422.5 L231.4,422.5 Z" id="Shape" sketch:type="MSShapeGroup"></path>
            <rect id="Rectangle-path" sketch:type="MSShapeGroup" x="235.2" y="363.1" width="2.6" height="56.6"></rect>
            <rect id="Rectangle-path" sketch:type="MSShapeGroup" x="235.2" y="417.1" width="36" height="2.6"></rect>
            <path d="M271.3,419.7 L268.7,419.7 L268.7,365.8 L235.2,365.8 L235.2,363.1 L271.3,363.1 L271.3,419.7 Z" id="Shape" sketch:type="MSShapeGroup"></path>
            <rect id="Rectangle-path" sketch:type="MSShapeGroup" x="235.2" y="390.1" width="36" height="2.6"></rect>
            <rect id="Rectangle-path" sketch:type="MSShapeGroup" x="235.2" y="376.6" width="36" height="2.6"></rect>
            <rect id="Rectangle-path" sketch:type="MSShapeGroup" x="235.2" y="403.6" width="36" height="2.6"></rect>
            <rect id="Rectangle-path" sketch:type="MSShapeGroup" x="228.8" y="338.1" width="48.9" height="2.6"></rect>
            <rect id="Rectangle-path" sketch:type="MSShapeGroup" x="235.2" y="278.3" width="2.6" height="56.6"></rect>
            <rect id="Rectangle-path" sketch:type="MSShapeGroup" x="235.2" y="332.3" width="36" height="2.6"></rect>
            <path d="M271.3,334.9 L268.7,334.9 L268.7,280.9 L235.2,280.9 L235.2,278.3 L271.3,278.3 L271.3,334.9 Z" id="Shape" sketch:type="MSShapeGroup"></path>
            <rect id="Rectangle-path" sketch:type="MSShapeGroup" x="235.2" y="305.3" width="36" height="2.6"></rect>
            <rect id="Rectangle-path" sketch:type="MSShapeGroup" x="235.2" y="291.8" width="36" height="2.6"></rect>
            <rect id="Rectangle-path" sketch:type="MSShapeGroup" x="235.2" y="318.8" width="36" height="2.6"></rect>
            <rect id="Rectangle-path" sketch:type="MSShapeGroup" x="228.8" y="247.8" width="48.9" height="2.6"></rect>
            <rect id="Rectangle-path" sketch:type="MSShapeGroup" x="235.2" y="200.5" width="2.6" height="44.1"></rect>
            <rect id="Rectangle-path" sketch:type="MSShapeGroup" x="235.2" y="242" width="36" height="2.6"></rect>
            <rect id="Rectangle-path" sketch:type="MSShapeGroup" x="235.2" y="215" width="36" height="2.6"></rect>
            <rect id="Rectangle-path" sketch:type="MSShapeGroup" x="235.2" y="228.5" width="36" height="2.6"></rect>
            <rect id="Rectangle-path" sketch:type="MSShapeGroup" x="268.7" y="200.5" width="2.6" height="44.1"></rect>
            <path d="M411.1,144 L408.5,144 L408.5,2.6 L3.3,2.6 L3.3,144 L0.7,144 L0.7,0 L411.1,0 L411.1,144 Z" id="Shape" sketch:type="MSShapeGroup"></path>
            <path d="M243.7,144 L241.1,144 L241.1,97.7 L161.5,97.7 L161.5,144 L158.9,144 L158.9,95.1 L243.7,95.1 L243.7,144 Z" id="Shape" sketch:type="MSShapeGroup"></path>
            <path d="M251.5,97.7 L241.1,97.7 L241.1,95.1 L248.8,95.1 L248.8,90 L153.8,90 L153.8,95.1 L161.5,95.1 L161.5,97.7 L151.1,97.7 L151.1,87.4 L251.5,87.4 L251.5,97.7 Z" id="Shape" sketch:type="MSShapeGroup"></path>
            <rect id="Rectangle-path" sketch:type="MSShapeGroup" x="24.3" y="486" width="362.1" height="2.6"></rect>
            <rect id="Rectangle-path" sketch:type="MSShapeGroup" x="181.8" y="493.7" width="2.6" height="74.6"></rect>
            <rect id="Rectangle-path" sketch:type="MSShapeGroup" x="174.1" y="493.7" width="2.6" height="74.6"></rect>
            <rect id="Rectangle-path" sketch:type="MSShapeGroup" x="226.2" y="493.7" width="2.6" height="74.6"></rect>
            <rect id="Rectangle-path" sketch:type="MSShapeGroup" x="233.9" y="493.7" width="2.6" height="74.6"></rect>
            <rect id="Rectangle-path" sketch:type="MSShapeGroup" x="181.8" y="534.8" width="47.1" height="2.6"></rect>
            <rect id="Rectangle-path" sketch:type="MSShapeGroup" x="174.1" y="546.4" width="10.3" height="2.6"></rect>
            <rect id="Rectangle-path" sketch:type="MSShapeGroup" x="226.2" y="546.4" width="10.3" height="2.6"></rect>
            <rect id="Rectangle-path" sketch:type="MSShapeGroup" x="120.1" y="486" width="2.6" height="82.3"></rect>
            <rect id="Rectangle-path" sketch:type="MSShapeGroup" x="112.3" y="486" width="2.6" height="82.3"></rect>
            <rect id="Rectangle-path" sketch:type="MSShapeGroup" x="112.3" y="546.4" width="10.3" height="2.6"></rect>
            <rect id="Rectangle-path" sketch:type="MSShapeGroup" x="287.9" y="486" width="2.6" height="82.3"></rect>
            <rect id="Rectangle-path" sketch:type="MSShapeGroup" x="295.7" y="486" width="2.6" height="82.3"></rect>
            <rect id="Rectangle-path" sketch:type="MSShapeGroup" x="287.9" y="546.4" width="10.3" height="2.6"></rect>
            <rect id="Rectangle-path" sketch:type="MSShapeGroup" x="120.1" y="493.7" width="170.5" height="2.6"></rect>
            <rect id="Rectangle-path" sketch:type="MSShapeGroup" x="120.1" y="511.7" width="56.6" height="2.6"></rect>
            <rect id="Rectangle-path" sketch:type="MSShapeGroup" x="233.9" y="511.7" width="56.6" height="2.6"></rect>
            <rect id="Rectangle-path" sketch:type="MSShapeGroup" x="260.9" y="511.7" width="2.6" height="56.6"></rect>
            <rect id="Rectangle-path" sketch:type="MSShapeGroup" x="147.1" y="511.7" width="2.6" height="56.6"></rect>
            <rect id="Rectangle-path" sketch:type="MSShapeGroup" x="24.3" y="511.7" width="90.3" height="2.6"></rect>
            <rect id="Rectangle-path" sketch:type="MSShapeGroup" x="24.3" y="493.7" width="90.3" height="2.6"></rect>
            <rect id="Rectangle-path" sketch:type="MSShapeGroup" x="295.7" y="511.7" width="90.7" height="2.6"></rect>
            <rect id="Rectangle-path" sketch:type="MSShapeGroup" x="295.7" y="493.7" width="90.7" height="2.6"></rect>
            <rect id="Rectangle-path" sketch:type="MSShapeGroup" x="83" y="511.7" width="2.6" height="56.6"></rect>
            <rect id="Rectangle-path" sketch:type="MSShapeGroup" x="53.6" y="511.7" width="2.6" height="56.6"></rect>
            <rect id="Rectangle-path" sketch:type="MSShapeGroup" x="354.4" y="511.7" width="2.6" height="56.6"></rect>
            <rect id="Rectangle-path" sketch:type="MSShapeGroup" x="325" y="511.7" width="2.6" height="56.6"></rect>
        </g>
    </g>
</svg>
