<?xml version="1.0" encoding="UTF-8" standalone="no"?>
<svg width="92px" height="93px" viewBox="0 0 92 93" version="1.1" xmlns="http://www.w3.org/2000/svg" xmlns:xlink="http://www.w3.org/1999/xlink" xmlns:sketch="http://www.bohemiancoding.com/sketch/ns">
    <!-- Generator: Sketch 3.3.2 (12043) - http://www.bohemiancoding.com/sketch -->
    <title>Fill 19</title>
    <desc>Created with Sketch.</desc>
    <defs></defs>
    <g id="Page-1" stroke="none" stroke-width="1" fill="none" fill-rule="evenodd" sketch:type="MSPage">
        <g id="Entypo" sketch:type="MSLayerGroup" transform="translate(-1404.000000, -2146.000000)" fill="#fff" opacity="0.2">
            <path d="M1442.5,2221.24 C1439.3,2221.24 1436.96,2219.3 1439.2,2210.77 L1442.86,2195.64 C1443.5,2193.22 1443.61,2192.25 1442.86,2192.25 C1441.9,2192.25 1437.75,2193.93 1435.31,2195.57 L1433.71,2192.96 C1441.48,2186.47 1450.42,2182.66 1454.25,2182.66 C1457.45,2182.66 1457.98,2186.44 1456.38,2192.25 L1452.18,2208.15 C1451.44,2210.96 1451.76,2211.93 1452.5,2211.93 C1453.46,2211.93 1456.6,2210.77 1459.69,2208.34 L1461.5,2210.77 C1453.94,2218.32 1445.69,2221.24 1442.5,2221.24 L1442.5,2221.24 Z M1454.48,2161.82 C1459.16,2161.82 1460.54,2164.53 1460.54,2167.63 C1460.54,2171.51 1457.44,2175.1 1452.14,2175.1 C1447.71,2175.1 1445.61,2172.87 1445.73,2169.19 C1445.73,2166.08 1448.33,2161.82 1454.48,2161.82 L1454.48,2161.82 Z M1449.38,2146.49 C1423.98,2146.83 1403.67,2167.7 1404,2193.11 C1404.34,2218.5 1425.21,2238.82 1450.62,2238.48 C1476.01,2238.14 1496.33,2217.27 1496,2191.87 C1495.66,2166.47 1474.79,2146.15 1449.38,2146.49 L1449.38,2146.49 Z" id="Fill-19" sketch:type="MSShapeGroup"></path>
        </g>
    </g>
</svg>
