<?xml version="1.0" encoding="UTF-8" standalone="no"?>
<svg width="45px" height="57px" viewBox="0 0 45 57" version="1.1" xmlns="http://www.w3.org/2000/svg" xmlns:xlink="http://www.w3.org/1999/xlink" xmlns:sketch="http://www.bohemiancoding.com/sketch/ns">
    <!-- Generator: Sketch 3.3.2 (12043) - http://www.bohemiancoding.com/sketch -->
    <title>ABB-monogram-black Copy</title>
    <desc>Created with Sketch.</desc>
    <defs>
        <path id="path-1" d="M0,0 L44.9701987,0 L44.9701987,56.9821875 L0,56.9821875"></path>
    </defs>
    <g id="Marketing" stroke="none" stroke-width="1" fill="none" fill-rule="evenodd" sketch:type="MSPage">
        <g id="ABB-monogram-black-Copy" sketch:type="MSLayerGroup">
            <g id="Group-4">
                <mask id="mask-2" sketch:name="Clip 2" fill="white">
                    <use xlink:href="#path-1"></use>
                </mask>
                <g id="Clip-2"></g>
                <path d="M11.6672185,3.2953125 L33.3476821,3.2953125 L33.3476821,18.6585937 L25.2119205,28.5 L33.3029801,38.3414062 L33.3029801,44.2640625 L36.6556291,44.2640625 L36.6556291,37.1390625 L29.5480132,28.5 L36.6556291,19.8609375 L36.6556291,1.64765625 C36.6556291,0.7125 35.9403974,0 35.0016556,0 L8.35927152,0 L8.35927152,7.2140625 L11.6672185,7.2140625 L11.6672185,3.2953125" id="Fill-1" fill="#FFFFFF" sketch:type="MSShapeGroup" mask="url(#mask-2)"></path>
                <path d="M33.3029801,49.8304687 L33.3029801,53.7046875 L11.6225166,53.7046875 L11.6225166,12.7359375 L8.26986755,12.7359375 L8.26986755,57 L34.9122517,57 C35.8509934,57 36.5662252,56.2875 36.5662252,55.3523437 L36.5662252,49.8304687 L33.3029801,49.8304687" id="Fill-3" fill="#FFFFFF" sketch:type="MSShapeGroup" mask="url(#mask-2)"></path>
            </g>
            <path d="M18.3278146,8.2828125 L1.65397351,8.2828125 C0.715231788,8.2828125 0,8.9953125 0,9.93046875 L0,48.7171875 L3.35264901,48.7171875 L3.35264901,30.1476562 L7.24172185,30.1476562 L7.24172185,26.8078125 L3.35264901,26.8078125 L3.35264901,11.578125 L16.6738411,11.578125 L16.6738411,26.8078125 L12.7400662,26.8078125 L12.7400662,30.1476562 L16.6738411,30.1476562 L16.6738411,48.7171875 L20.0264901,48.7171875 L20.0264901,9.93046875 C20.0264901,9.03984375 19.2218543,8.2828125 18.3278146,8.2828125" id="Fill-5" fill="#FFFFFF" sketch:type="MSShapeGroup"></path>
            <path d="M44.9701987,22.3101562 L44.9701987,9.93046875 C44.9701987,8.9953125 44.2549669,8.2828125 43.3162252,8.2828125 L37.7284768,8.2828125 L37.7284768,11.6226562 L41.6175497,11.6226562 L41.6175497,21.73125 L36.0745033,28.5 L41.6622517,35.26875 L41.6622517,45.3773437 L28.3410596,45.3773437 L28.3410596,11.6226562 L32.2301325,11.6226562 L32.2301325,8.2828125 L24.9884106,8.2828125 L24.9884106,48.7171875 L43.3162252,48.7171875 C44.2549669,48.7171875 44.9701987,48.0046875 44.9701987,47.0695312 L44.9701987,34.6898437 C44.9701987,34.2890625 44.8360927,33.9328125 44.5678808,33.665625 L40.365894,28.5 L44.6125828,23.3789062 C44.8360927,23.1117187 44.9701987,22.7109375 44.9701987,22.3101562" id="Fill-6" fill="#FFFFFF" sketch:type="MSShapeGroup"></path>
        </g>
    </g>
</svg>