<?xml version="1.0" encoding="UTF-8" standalone="no"?>
<svg width="246px" height="54px" viewBox="0 0 246 54" version="1.1" xmlns="http://www.w3.org/2000/svg" xmlns:xlink="http://www.w3.org/1999/xlink" xmlns:sketch="http://www.bohemiancoding.com/sketch/ns">
    <!-- Generator: Sketch 3.3.2 (12043) - http://www.bohemiancoding.com/sketch -->
    <title>ABB-horiz-black</title>
    <desc>Created with Sketch.</desc>
    <defs></defs>
    <g id="Page-1" stroke="none" stroke-width="1" fill="none" fill-rule="evenodd" sketch:type="MSPage">
        <g id="ABB-horiz-black" sketch:type="MSLayerGroup" fill="#FBF6F2">
            <g id="Group-4" transform="translate(7.000000, 0.000000)" sketch:type="MSShapeGroup">
                <path d="M3.974,3.1 L24.433,3.1 L24.433,17.669 L16.807,26.969 L24.433,36.269 L24.433,41.911 L27.595,41.911 L27.595,35.153 L20.899,26.969 L27.595,18.785 L27.595,1.55 C27.595,0.682 26.913,0 26.045,0 L0.874,0 L0.874,6.82 L4.036,6.82 L4.036,3.1 L3.974,3.1" id="Fill-1"></path>
                <path d="M24.433,47.18 L24.433,50.838 L3.974,50.838 L3.974,12.028 L0.812,12.028 L0.812,54 L25.983,54 C26.851,54 27.533,53.318 27.533,52.45 L27.533,47.242 L24.433,47.242 L24.433,47.18" id="Fill-3"></path>
            </g>
            <path d="M17.297,7.812 L1.55,7.812 C0.682,7.812 0,8.494 0,9.362 L0,46.126 L3.162,46.126 L3.162,28.519 L6.82,28.519 L6.82,25.357 L3.162,25.357 L3.162,10.912 L15.747,10.912 L15.747,25.357 L12.09,25.357 L12.09,28.519 L15.747,28.519 L15.747,46.126 L18.909,46.126 L18.909,9.362 C18.847,8.494 18.165,7.812 17.297,7.812" id="Fill-5" sketch:type="MSShapeGroup"></path>
            <path d="M42.468,21.079 L42.468,9.362 C42.468,8.494 41.787,7.812 40.919,7.812 L35.649,7.812 L35.649,10.974 L39.307,10.974 L39.307,20.583 L34.037,27.031 L39.307,33.479 L39.307,43.088 L26.721,43.088 L26.721,11.036 L30.379,11.036 L30.379,7.874 L23.559,7.874 L23.559,46.188 L40.857,46.188 C41.724,46.188 42.406,45.506 42.406,44.638 L42.406,32.921 C42.406,32.549 42.282,32.177 42.034,31.929 L38.067,27.093 L42.034,22.257 C42.283,21.823 42.468,21.451 42.468,21.079" id="Fill-6" sketch:type="MSShapeGroup"></path>
            <path d="M83.697,38.377 L72.351,38.377 L72.351,15.623 L75.513,15.623 L75.513,35.339 L83.759,35.339 L83.759,38.377 L83.697,38.377" id="Fill-7" sketch:type="MSShapeGroup"></path>
            <path d="M95.787,30.503 C95.787,29.449 94.981,28.519 93.926,28.519 L89.401,28.519 L89.401,35.215 L93.926,35.215 C94.981,35.215 95.787,34.285 95.787,33.293 L95.787,30.503 L95.787,30.503 Z M95.787,20.645 C95.787,19.591 94.981,18.723 93.926,18.723 L89.401,18.723 L89.401,25.543 L93.926,25.543 C94.981,25.543 95.787,24.613 95.787,23.559 L95.787,20.645 L95.787,20.645 Z M98.948,33.293 C98.948,36.083 96.654,38.315 93.926,38.315 L86.301,38.315 L86.301,15.561 L93.926,15.561 C96.654,15.561 98.948,17.855 98.948,20.583 L98.948,23.497 C98.948,24.861 98.328,26.163 97.336,26.969 C98.328,27.775 98.948,29.077 98.948,30.503 L98.948,33.293 L98.948,33.293 Z" id="Fill-8" sketch:type="MSShapeGroup"></path>
            <path d="M114.324,35.277 L114.324,38.377 L102.978,38.377 L102.978,15.623 L114.324,15.623 L114.324,18.723 L106.078,18.723 L106.078,25.543 L113.084,25.543 L113.084,28.643 L106.078,28.643 L106.078,35.401 L114.324,35.401 L114.324,35.277" id="Fill-9" sketch:type="MSShapeGroup"></path>
            <path d="M121.206,27.651 L125.049,27.651 C126.041,27.651 126.909,26.721 126.909,25.729 L126.909,20.645 C126.909,19.591 126.103,18.661 125.049,18.661 L121.206,18.661 L121.206,27.651 L121.206,27.651 Z M127.095,38.377 L123.251,30.751 L121.206,30.751 L121.206,38.377 L118.106,38.377 L118.106,15.623 L125.111,15.623 C127.839,15.623 130.133,17.917 130.133,20.645 L130.133,25.729 C130.133,27.961 128.645,29.821 126.599,30.503 L130.505,38.377 L127.095,38.377 L127.095,38.377 Z" id="Fill-10" sketch:type="MSShapeGroup"></path>
            <path d="M140.053,18.661 L140.053,38.377 L136.829,38.377 L136.829,18.661 L132.737,18.661 L132.737,15.561 L144.145,15.561 L144.145,18.661 L140.053,18.661" id="Fill-11" sketch:type="MSShapeGroup"></path>
            <path d="M149.91,29.883 L156.172,29.883 L156.172,21.637 L156.172,20.831 C156.11,20.335 155.986,19.839 155.738,19.405 C155.49,18.909 155.056,18.475 154.498,18.227 C154.126,18.041 153.754,17.979 153.382,17.917 C152.824,17.855 152.266,17.917 151.708,18.165 C151.026,18.475 150.53,19.033 150.22,19.715 C149.972,20.273 149.91,20.831 149.91,21.451 L149.91,29.883 L149.91,29.883 Z M152.576,15.004 L153.444,15.004 L153.63,15.004 C153.878,15.004 154.126,15.065 154.374,15.065 C155.18,15.19 155.924,15.499 156.606,15.871 C157.226,16.243 157.722,16.739 158.156,17.297 C158.59,17.917 158.9,18.599 159.148,19.281 C159.334,19.963 159.396,20.645 159.396,21.327 L159.396,38.129 L159.396,38.315 L156.172,38.315 L156.172,32.797 L149.91,32.797 L149.91,38.315 L146.687,38.315 L146.687,20.831 C146.687,20.521 146.749,20.211 146.811,19.963 C146.935,19.405 147.059,18.909 147.245,18.413 C147.679,17.421 148.361,16.553 149.291,15.933 C150.096,15.375 151.026,15.065 152.018,14.941 C152.266,15.004 152.452,15.004 152.576,15.004 L152.576,15.004 Z" id="Fill-12" sketch:type="MSShapeGroup"></path>
            <path d="M58.402,29.883 L64.664,29.883 L64.664,21.637 L64.664,20.831 C64.602,20.335 64.478,19.839 64.23,19.405 C63.982,18.909 63.548,18.475 62.99,18.227 C62.618,18.041 62.246,17.979 61.874,17.917 C61.316,17.855 60.758,17.917 60.2,18.165 C59.518,18.475 59.022,19.033 58.712,19.715 C58.464,20.273 58.402,20.831 58.402,21.451 L58.402,29.883 L58.402,29.883 Z M61.13,15.004 L61.998,15.004 L62.184,15.004 C62.432,15.004 62.68,15.065 62.928,15.065 C63.734,15.19 64.478,15.499 65.16,15.871 C65.78,16.243 66.276,16.739 66.71,17.297 C67.144,17.917 67.454,18.599 67.702,19.281 C67.887,19.963 67.95,20.645 67.95,21.327 L67.95,38.129 L67.95,38.315 L64.726,38.315 L64.726,32.797 L58.464,32.797 L58.464,38.315 L55.24,38.315 L55.24,20.831 C55.24,20.521 55.302,20.211 55.364,19.963 C55.488,19.405 55.612,18.909 55.798,18.413 C56.232,17.421 56.914,16.553 57.844,15.933 C58.65,15.375 59.58,15.065 60.572,14.941 C60.758,15.004 60.944,15.004 61.13,15.004 L61.13,15.004 Z" id="Fill-13" sketch:type="MSShapeGroup"></path>
            <path d="M180.041,30.503 C180.041,29.449 179.235,28.519 178.181,28.519 L173.656,28.519 L173.656,35.215 L178.181,35.215 C179.235,35.215 180.041,34.285 180.041,33.293 L180.041,30.503 L180.041,30.503 Z M180.041,20.645 C180.041,19.591 179.235,18.723 178.181,18.723 L173.656,18.723 L173.656,25.543 L178.181,25.543 C179.235,25.543 180.041,24.613 180.041,23.559 L180.041,20.645 L180.041,20.645 Z M183.203,33.293 C183.203,36.083 180.909,38.315 178.181,38.315 L170.556,38.315 L170.556,15.561 L178.181,15.561 C180.909,15.561 183.203,17.855 183.203,20.583 L183.203,23.497 C183.203,24.861 182.583,26.163 181.591,26.969 C182.583,27.775 183.203,29.077 183.203,30.503 L183.203,33.293 L183.203,33.293 Z" id="Fill-14" sketch:type="MSShapeGroup"></path>
            <path d="M198.579,38.377 L187.233,38.377 L187.233,15.623 L190.395,15.623 L190.395,35.339 L198.641,35.339 L198.641,38.377 L198.579,38.377" id="Fill-15" sketch:type="MSShapeGroup"></path>
            <path d="M209.986,21.265 C209.986,19.405 208.746,17.979 206.824,17.979 C204.903,17.979 203.663,19.405 203.663,21.265 L203.663,32.673 C203.663,34.533 204.903,35.959 206.824,35.959 C208.746,35.959 209.986,34.533 209.986,32.673 L209.986,21.265 L209.986,21.265 Z M213.21,32.673 C213.21,36.207 210.358,38.935 206.886,38.935 C203.415,38.935 200.563,36.145 200.563,32.673 L200.563,21.265 C200.563,17.731 203.415,14.941 206.886,14.941 C210.358,14.941 213.21,17.731 213.21,21.265 L213.21,32.673 L213.21,32.673 Z" id="Fill-16" sketch:type="MSShapeGroup"></path>
            <path d="M229.268,32.673 C229.268,36.207 226.416,38.935 222.944,38.935 C219.41,38.935 216.62,36.145 216.62,32.673 L216.62,21.265 C216.62,17.731 219.472,14.941 222.944,14.941 C226.478,14.941 229.268,17.731 229.268,21.265 L229.268,23.125 L226.044,23.125 L226.044,21.265 C226.044,19.405 224.804,17.979 222.882,17.979 C220.96,17.979 219.72,19.405 219.72,21.265 L219.72,32.673 C219.72,34.533 220.96,35.959 222.882,35.959 C224.804,35.959 226.044,34.533 226.044,32.673 L226.044,30.751 L229.268,30.751 L229.268,32.673" id="Fill-17" sketch:type="MSShapeGroup"></path>
            <path d="M245.511,15.561 L242.039,15.561 L238.195,25.481 L236.087,25.481 L236.087,15.561 L232.987,15.561 L232.987,38.377 L236.087,38.377 L236.087,28.519 L238.195,28.519 L242.039,38.377 L245.511,38.377 L240.923,27.031 L245.511,15.561" id="Fill-18" sketch:type="MSShapeGroup"></path>
        </g>
    </g>
</svg>