<?xml version="1.0" encoding="UTF-8" standalone="no"?>
<svg width="100px" height="89px" viewBox="0 0 100 89" version="1.1" xmlns="http://www.w3.org/2000/svg" xmlns:xlink="http://www.w3.org/1999/xlink" xmlns:sketch="http://www.bohemiancoding.com/sketch/ns">
    <!-- Generator: Sketch 3.3.2 (12043) - http://www.bohemiancoding.com/sketch -->
    <title>Fill 55</title>
    <desc>Created with Sketch.</desc>
    <defs></defs>
    <g id="Page-1" stroke="none" stroke-width="1" fill="none" fill-rule="evenodd" sketch:type="MSPage">
        <g id="Entypo" sketch:type="MSLayerGroup" transform="translate(-2800.000000, -348.000000)" fill="#fff" opacity="0.2">
            <path d="M2851.12,410.363 C2841.23,406.229 2838.07,402.742 2838.07,395.277 C2838.07,390.793 2841.09,392.258 2842.41,384.049 C2842.96,380.645 2845.63,383.994 2846.14,376.22 C2846.14,373.122 2844.68,372.352 2844.68,372.352 C2844.68,372.352 2845.42,367.769 2845.71,364.24 C2846.07,359.843 2843.5,348.486 2829.77,348.486 C2816.05,348.486 2813.47,359.843 2813.83,364.24 C2814.12,367.769 2814.86,372.352 2814.86,372.352 C2814.86,372.352 2813.4,373.122 2813.4,376.22 C2813.92,383.994 2816.58,380.645 2817.13,384.049 C2818.46,392.258 2821.48,390.793 2821.48,395.277 C2821.48,402.742 2818.32,406.229 2808.43,410.363 C2805.41,411.623 2800,413.574 2800,418.269 L2800,436.486 L2869.47,436.486 L2869.47,422.827 C2869.47,418.544 2861.04,414.511 2851.12,410.363 L2851.12,410.363 Z M2900,436.486 C2900,436.486 2899.8,417.552 2898.65,415.589 C2896.93,412.667 2892.92,410.658 2885.48,407.548 C2878.06,404.448 2875.69,401.833 2875.69,396.232 C2875.69,392.869 2877.95,393.968 2878.95,387.813 C2879.36,385.258 2881.36,387.77 2881.74,381.941 C2881.74,379.617 2880.65,379.039 2880.65,379.039 C2880.65,379.039 2881.21,375.602 2881.42,372.955 C2881.69,369.657 2879.76,361.139 2869.47,361.139 C2859.17,361.139 2857.24,369.657 2857.51,372.955 C2857.73,375.602 2858.28,379.039 2858.28,379.039 C2858.28,379.039 2857.19,379.617 2857.19,381.941 C2857.58,387.77 2859.57,385.258 2859.99,387.813 C2860.98,393.968 2863.25,392.869 2863.25,396.232 C2863.25,400.04 2862.15,402.468 2859.11,404.607 C2875.31,412.718 2877.49,414.371 2877.49,421.622 L2877.49,436.486 L2900,436.486 L2900,436.486 Z" id="Fill-55" sketch:type="MSShapeGroup"></path>
        </g>
    </g>
</svg>
