<?xml version="1.0" encoding="UTF-8" standalone="no"?>
<svg width="190px" height="24px" viewBox="0 0 190 24" version="1.1" xmlns="http://www.w3.org/2000/svg" xmlns:xlink="http://www.w3.org/1999/xlink" xmlns:sketch="http://www.bohemiancoding.com/sketch/ns">
    <!-- Generator: Sketch 3.3.2 (12043) - http://www.bohemiancoding.com/sketch -->
    <title>ABB-text-horiz</title>
    <desc>Created with Sketch.</desc>
    <defs>
        <path id="path-1" d="M0.06,0 L189.511,0 L189.511,23.94 L0.06,23.94 L0.06,0 Z"></path>
        <path id="path-3" d="M0.06,0 L189.511,0 L189.511,23.94 L0.06,23.94"></path>
    </defs>
    <g id="Page-1" stroke="none" stroke-width="1" fill="none" fill-rule="evenodd" sketch:type="MSPage">
        <g id="ABB-text-horiz" sketch:type="MSLayerGroup">
            <path d="M28.481,23.402 L17.129,23.402 L17.129,0.697 L20.216,0.697 L20.216,20.315 L28.382,20.315 L28.382,23.402 L28.481,23.402" id="Fill-1" fill="#FBF6F2" sketch:type="MSShapeGroup"></path>
            <path d="M40.432,15.635 C40.432,14.539 39.635,13.643 38.54,13.643 L34.058,13.643 L34.058,20.315 L38.54,20.315 C39.635,20.315 40.432,19.419 40.432,18.423 L40.432,15.635 L40.432,15.635 Z M40.432,5.776 C40.432,4.68 39.635,3.884 38.54,3.884 L34.058,3.884 L34.058,10.656 L38.54,10.656 C39.635,10.656 40.432,9.759 40.432,8.664 L40.432,5.776 L40.432,5.776 Z M43.618,18.324 C43.618,21.112 41.328,23.303 38.639,23.303 L31.071,23.303 L31.071,0.597 L38.639,0.597 C41.328,0.597 43.618,2.888 43.618,5.577 L43.618,8.465 C43.618,9.859 43.021,11.054 42.025,11.95 C43.021,12.747 43.618,14.141 43.618,15.436 L43.618,18.324 L43.618,18.324 Z" id="Fill-2" fill="#FBF6F2" sketch:type="MSShapeGroup"></path>
            <path d="M58.954,20.315 L58.954,23.402 L47.701,23.402 L47.701,0.697 L58.954,0.697 L58.954,3.784 L50.788,3.784 L50.788,10.556 L57.759,10.556 L57.759,13.643 L50.788,13.643 L50.788,20.315 L58.954,20.315" id="Fill-3" fill="#FBF6F2" sketch:type="MSShapeGroup"></path>
            <path d="M65.826,12.747 L69.71,12.747 C70.705,12.747 71.502,11.851 71.502,10.855 L71.502,5.776 C71.502,4.68 70.705,3.784 69.71,3.784 L65.826,3.784 L65.826,12.747 L65.826,12.747 Z M71.602,23.402 L67.817,15.834 L65.826,15.834 L65.826,23.402 L62.739,23.402 L62.739,0.697 L69.71,0.697 C72.398,0.697 74.689,2.988 74.689,5.676 L74.689,10.755 C74.689,12.946 73.195,14.838 71.203,15.535 L75.087,23.303 L71.602,23.402 L71.602,23.402 Z" id="Fill-4" fill="#FBF6F2" sketch:type="MSShapeGroup"></path>
            <path d="M84.548,3.784 L84.548,23.402 L81.361,23.402 L81.361,3.784 L77.278,3.784 L77.278,0.697 L88.631,0.697 L88.631,3.784 L84.548,3.784" id="Fill-5" fill="#FBF6F2" sketch:type="MSShapeGroup"></path>
            <g id="Group-9">
                <mask id="mask-2" sketch:name="Clip 7" fill="white">
                    <use xlink:href="#path-1"></use>
                </mask>
                <g id="Clip-7"></g>
                <path d="M94.307,14.938 L100.481,14.938 L100.481,6.672 L100.481,5.875 C100.481,5.378 100.382,4.88 100.083,4.481 C99.784,3.983 99.386,3.585 98.888,3.286 C98.589,3.087 98.191,2.988 97.693,2.988 C97.095,2.988 96.498,2.988 96,3.187 C95.303,3.485 94.805,3.983 94.506,4.68 C94.307,5.178 94.208,5.776 94.208,6.373 C94.307,9.66 94.307,14.938 94.307,14.938 L94.307,14.938 Z M97.095,0.1 L97.992,0.1 L98.091,0.1 C98.291,0.1 98.589,0.1 98.788,0.199 C99.585,0.299 100.282,0.597 100.979,0.996 C101.577,1.394 102.075,1.892 102.473,2.39 C102.871,2.988 103.27,3.685 103.469,4.382 C103.668,5.079 103.668,5.676 103.668,6.373 L103.668,23.104 L103.668,23.203 L100.481,23.203 L100.481,17.726 L94.307,17.726 L94.307,23.203 L91.12,23.203 L91.12,5.776 C91.12,5.477 91.12,5.178 91.22,4.88 C91.32,4.382 91.419,3.784 91.718,3.386 C92.116,2.39 92.913,1.593 93.809,0.996 C94.606,0.498 95.602,0.1 96.498,0 C96.697,0.1 96.896,0.1 97.095,0.1 L97.095,0.1 Z" id="Fill-6" fill="#FBF6F2" sketch:type="MSShapeGroup" mask="url(#mask-2)"></path>
                <path d="M3.286,14.938 L9.461,14.938 L9.461,6.672 L9.461,5.875 C9.461,5.378 9.361,4.88 9.062,4.481 C8.764,3.983 8.365,3.585 7.867,3.286 C7.568,3.087 7.17,2.988 6.672,2.988 C6.075,2.988 5.477,2.988 4.979,3.187 C4.282,3.485 3.784,3.983 3.485,4.68 C3.286,5.178 3.187,5.776 3.187,6.373 C3.286,9.66 3.286,14.938 3.286,14.938 L3.286,14.938 Z M5.975,0.1 L6.871,0.1 L6.971,0.1 C7.17,0.1 7.469,0.1 7.668,0.199 C8.465,0.299 9.162,0.597 9.859,0.996 C10.456,1.394 10.954,1.892 11.353,2.39 C11.751,2.988 12.149,3.685 12.349,4.382 C12.548,5.079 12.548,5.676 12.548,6.373 L12.548,23.104 L12.548,23.203 L9.361,23.203 L9.361,17.726 L3.187,17.726 L3.187,23.203 L0,23.203 L0,5.776 C0,5.477 0,5.178 0.1,4.88 C0.199,4.382 0.299,3.784 0.598,3.386 C0.996,2.39 1.793,1.593 2.689,0.996 C3.485,0.498 4.481,0.1 5.378,0 C5.676,0.1 5.876,0.1 5.975,0.1 L5.975,0.1 Z" id="Fill-8" fill="#FBF6F2" sketch:type="MSShapeGroup" mask="url(#mask-2)"></path>
            </g>
            <path d="M124.382,15.635 C124.382,14.539 123.585,13.643 122.49,13.643 L118.008,13.643 L118.008,20.315 L122.49,20.315 C123.585,20.315 124.382,19.419 124.382,18.423 L124.382,15.635 L124.382,15.635 Z M124.382,5.776 C124.382,4.68 123.585,3.884 122.49,3.884 L118.008,3.884 L118.008,10.656 L122.49,10.656 C123.585,10.656 124.382,9.759 124.382,8.664 L124.382,5.776 L124.382,5.776 Z M127.469,18.324 C127.469,21.112 125.179,23.303 122.49,23.303 L114.921,23.303 L114.921,0.597 L122.49,0.597 C125.179,0.597 127.469,2.888 127.469,5.577 L127.469,8.465 C127.469,9.859 126.871,11.054 125.876,11.95 C126.871,12.747 127.469,14.141 127.469,15.436 L127.469,18.324 L127.469,18.324 Z" id="Fill-10" fill="#FBF6F2" sketch:type="MSShapeGroup"></path>
            <g id="Group-15">
                <mask id="mask-4" sketch:name="Clip 12" fill="white">
                    <use xlink:href="#path-3"></use>
                </mask>
                <g id="Clip-12"></g>
                <path d="M142.805,23.402 L131.552,23.402 L131.552,0.697 L134.639,0.697 L134.639,20.315 L142.805,20.315 L142.805,23.402" id="Fill-11" fill="#FBF6F2" sketch:type="MSShapeGroup" mask="url(#mask-4)"></path>
                <path d="M154.158,6.373 C154.158,4.481 152.963,3.087 151.071,3.087 C149.179,3.087 147.984,4.481 147.984,6.373 L147.984,17.726 C147.984,19.519 149.179,21.012 151.071,21.012 C152.963,21.012 154.158,19.618 154.158,17.726 L154.158,6.373 L154.158,6.373 Z M157.345,17.726 C157.345,21.212 154.556,24 151.071,24 C147.585,24 144.797,21.212 144.797,17.726 L144.797,6.373 C144.797,2.888 147.585,0.1 151.071,0.1 C154.556,0.1 157.345,2.888 157.345,6.373 L157.345,17.726 L157.345,17.726 Z" id="Fill-13" fill="#FBF6F2" sketch:type="MSShapeGroup" mask="url(#mask-4)"></path>
                <path d="M173.278,17.726 C173.278,21.212 170.49,24 167.004,24 C163.519,24 160.73,21.212 160.73,17.726 L160.73,6.373 C160.73,2.888 163.519,0.1 167.004,0.1 C170.49,0.1 173.278,2.888 173.278,6.373 L173.278,8.266 L170.091,8.266 L170.091,6.373 C170.091,4.481 168.896,3.087 167.004,3.087 C165.112,3.087 163.917,4.481 163.917,6.373 L163.917,17.726 C163.917,19.519 165.112,21.012 167.004,21.012 C168.896,21.012 170.091,19.618 170.091,17.726 L170.091,15.834 L173.278,15.834 L173.278,17.726" id="Fill-14" fill="#FBF6F2" sketch:type="MSShapeGroup" mask="url(#mask-4)"></path>
            </g>
            <path d="M189.511,0.697 L186.025,0.697 L182.141,10.656 L180.15,10.656 L180.15,0.697 L177.062,0.697 L177.062,23.402 L180.15,23.402 L180.15,13.643 L182.141,13.643 L186.025,23.402 L189.511,23.402 L184.93,12.05 L189.511,0.697" id="Fill-16" fill="#FBF6F2" sketch:type="MSShapeGroup"></path>
        </g>
    </g>
</svg>